<?xml version="1.0" encoding="UTF-8"?>
<svg id="Layer_1" data-name="Layer 1" xmlns="http://www.w3.org/2000/svg" viewBox="0 0 894.01 692.83">
  <defs>
    <style>
      .cls-1 {
        fill: #3a67c1;
      }

      .cls-2 {
        fill: #24932c;
      }

      .cls-3 {
        fill: #7c1a36;
      }
    </style>
  </defs>
  <g>
    <rect class="cls-1" x="0" y="53.51" width="852.95" height="475.28"/>
    <path class="cls-1" d="M21.93,0h364.3C398.33,0,408.15,9.82,408.15,21.93v71.58H0V21.93C0,9.82,9.82,0,21.93,0Z"/>
  </g>
  <g>
    <rect class="cls-3" x="18.32" y="136.68" width="852.95" height="475.28"/>
    <path class="cls-3" d="M40.25,77.84h364.3c12.1,0,21.93,9.82,21.93,21.93v71.58H18.32v-71.58c0-12.1,9.82-21.93,21.93-21.93Z"/>
  </g>
  <g>
    <rect class="cls-2" x="41.07" y="217.55" width="852.95" height="475.28"/>
    <path class="cls-2" d="M62.99,150.71h364.3c12.1,0,21.93,9.82,21.93,21.93v71.58H41.07v-71.58c0-12.1,9.82-21.93,21.93-21.93Z"/>
  </g>
</svg>