<?xml version="1.0" encoding="UTF-8"?>
<svg id="Layer_1" data-name="Layer 1" xmlns="http://www.w3.org/2000/svg" viewBox="0 0 214.44 189.49">
  <defs>
    <style>
      .cls-1 {
        fill: #fff;
      }

      .cls-2 {
        fill: #b53737;
      }

      .cls-3 {
        fill: #24932c;
      }

      .cls-4 {
        fill: #2e6fbc;
      }
    </style>
  </defs>
  <g>
    <rect class="cls-2" y="14.7" width="200" height="143"/>
    <path class="cls-2" d="M0,14.7L11.41,0h64l18.44,16.44S5.67,18.15,0,14.7Z"/>
  </g>
  <g>
    <rect class="cls-4" x="6.15" y="31.15" width="200" height="143"/>
    <path class="cls-4" d="M6.15,31.15l11.41-14.7h64l18.44,16.44s-91.74,1.61-93.85-1.74Z"/>
  </g>
  <g>
    <rect class="cls-3" x="14.44" y="45.85" width="200" height="143"/>
    <path class="cls-3" d="M14.44,45.85l11.41-14.7h64l18.44,16.44s-92.52,1.09-93.85-1.74Z"/>
  </g>
  <g>
    <path class="cls-1" d="M99.84,156.7h-4.57v32.37h-8.18v-32.37h-4.57v-4.85h17.31v4.85Z"/>
    <path class="cls-1" d="M118.77,189.07h-6.54v-1.17c-.55,1.06-2.14,1.58-4.75,1.58-4.03,0-6.05-1.57-6.05-4.72v-6.05c0-1.35.49-2.53,1.47-3.53.98-1,2.95-2.26,5.91-3.76,1.71-.87,2.57-1.56,2.57-2.08v-4.46c0-.99-.42-1.48-1.27-1.48-.97,0-1.45,1.2-1.45,3.61,0,.43.03,1.07.08,1.92.07.85.1,1.49.1,1.92h-7.14v-6.02c0-4.07,2.94-6.1,8.83-6.1,5.5,0,8.25,2.12,8.25,6.36v23.98ZM111.37,183.44v-7.76c-1.7.42-2.54,1.18-2.54,2.28v5.48c0,.92.44,1.38,1.32,1.38.81,0,1.22-.46,1.22-1.38Z"/>
    <path class="cls-1" d="M126.68,188.06l-.62,1.01h-5.6v-37.22h7.4v8c.88-.74,2.42-1.12,4.61-1.12,1.34,0,2.56.36,3.68,1.08s1.68,1.75,1.68,3.1v21.65c0,1.52-.67,2.73-2,3.61-1.34.88-2.94,1.32-4.81,1.32-1.46,0-2.9-.48-4.32-1.43ZM130.42,183.44v-18.66c0-.92-.42-1.38-1.27-1.38s-1.3.44-1.3,1.32v18.71c0,.92.43,1.38,1.3,1.38s1.27-.46,1.27-1.38Z"/>
    <path class="cls-1" d="M160.3,189.07h-8.41l-5.55-19.83v19.83h-6.83v-37.22h9.29l4.67,16.98v-16.98h6.83v37.22Z"/>
    <path class="cls-1" d="M179.32,176.3h-9.92v7.04c0,1.02.42,1.53,1.27,1.53s1.25-.51,1.25-1.53v-6.07h7.4v6.13c0,4.07-2.9,6.1-8.7,6.1s-8.62-2.12-8.62-6.36v-18.04c0-4.24,2.87-6.36,8.62-6.36s8.7,2.03,8.7,6.1v11.47ZM171.93,171.79v-6.9c0-.99-.42-1.48-1.25-1.48s-1.27.49-1.27,1.48v6.9h2.52Z"/>
    <path class="cls-1" d="M180.93,176.95h7.4v6.39c0,1.02.42,1.53,1.25,1.53s1.25-.98,1.25-2.93c0-2.54-.51-4.19-1.53-4.93-3.86-2.02-6.19-3.44-6.98-4.24s-1.19-2.01-1.19-3.62v-4.05c0-4.24,2.87-6.36,8.62-6.36s8.38,2.03,8.38,6.1v5.94h-7.22l.16-3.61c0-2.51-.46-3.76-1.38-3.76s-1.38.79-1.38,2.36.2,2.86.61,3.69c.41.83,2.67,2.26,6.79,4.28,1.71,1.23,2.57,2.86,2.57,4.88v4.52c0,4.24-2.92,6.36-8.76,6.36s-8.58-2.03-8.58-6.1v-6.44Z"/>
    <path class="cls-1" d="M214.44,189.07h-4.67c-3.34,0-5.34-.5-6-1.51-.66-1-.99-2.93-.99-5.79v-18.38h-3.3v-4.46h3.3v-6.07h7.4v6.07h4.26v4.46h-4.26v18.33c0,.88.26,1.48.79,1.78.53.3,1.68.45,3.47.45v5.11Z"/>
  </g>
</svg>